<?xml version="1.0" encoding="UTF-8" standalone="no"?>
<svg xmlns="http://www.w3.org/2000/svg" width="1500" height="1488" viewBox="0 0 1500 1488" version="1.1">
  <defs>
    <style><![CDATA[
      .logo-path { stroke: none; }
    ]]></style>
  </defs>
  <path class="logo-path" d="M 761 39 L 760 62 L 777 86 L 908 212 L 1001 327 L 1037 387 L 1071 464 L 1112 603 L 1121 612 L 1133 609 L 1150 582 L 1166 515 L 1164 405 L 1146 331 L 1089 217 L 1023 137 L 973 95 L 918 62 L 820 34 Z" fill="#bd09f0" />
  <path class="logo-path" d="M 1429 755 L 1410 755 L 1384 772 L 1231 921 L 1123 1002 L 1003 1064 L 861 1112 L 850 1122 L 852 1132 L 890 1150 L 928 1157 L 1043 1156 L 1142 1132 L 1246 1081 L 1318 1026 L 1396 932 L 1433 834 L 1437 786 Z" fill="#2c2cf0" />
  <path class="logo-path" d="M 218 264 L 223 283 L 253 291 L 485 263 L 624 266 L 740 291 L 853 333 L 876 333 L 880 323 L 870 292 L 839 252 L 757 187 L 658 144 L 548 125 L 442 130 L 362 154 L 295 189 L 251 221 Z" fill="#d908ed" />
  <path class="logo-path" d="M 1283 295 L 1247 293 L 1230 313 L 1226 497 L 1208 632 L 1174 743 L 1136 823 L 1091 895 L 1087 931 L 1110 929 L 1148 913 L 1235 840 L 1293 760 L 1335 663 L 1356 552 L 1352 442 L 1330 359 L 1312 323 Z" fill="#3534ef" />
  <path class="logo-path" d="M 517 1094 L 526 1128 L 551 1167 L 634 1248 L 723 1300 L 823 1334 L 910 1346 L 1023 1338 L 1100 1307 L 1135 1282 L 1154 1258 L 1149 1241 L 1117 1230 L 916 1217 L 783 1194 L 654 1150 L 545 1092 L 523 1087 Z" fill="#0560ee" />
  <path class="logo-path" d="M 535 340 L 518 331 L 475 325 L 369 337 L 285 370 L 189 435 L 123 505 L 73 592 L 51 669 L 49 727 L 57 763 L 75 766 L 113 735 L 222 593 L 306 505 L 417 423 L 539 354 Z" fill="#e303ef" />
  <path class="logo-path" d="M 281 648 L 248 672 L 220 705 L 178 782 L 149 886 L 144 999 L 158 1085 L 189 1158 L 249 1239 L 301 1282 L 318 1270 L 320 1236 L 284 1048 L 272 949 L 273 826 L 298 674 L 295 651 Z" fill="#0090aa" />
  <path class="logo-path" d="M 341 983 L 331 1005 L 329 1037 L 335 1091 L 351 1147 L 392 1232 L 450 1309 L 520 1373 L 614 1425 L 718 1442 L 761 1431 L 758 1408 L 732 1379 L 579 1256 L 503 1183 L 442 1111 L 361 991 Z" fill="#007ce1" />
</svg>
