<!-- /public/icons.svg -->
<svg xmlns="http://www.w3.org/2000/svg" style="display:none">
  <!-- All -->
  <symbol id="all" viewBox="0 0 48 48">
    <g fill="none" stroke="currentColor" stroke-width="2" stroke-linecap="round" stroke-linejoin="round">
      <rect x="6" y="10" width="12" height="8" rx="2"/>
      <rect x="20" y="10" width="22" height="8" rx="2"/>
      <rect x="6" y="26" width="20" height="8" rx="2"/>
      <rect x="28" y="26" width="14" height="8" rx="2"/>
    </g>
  </symbol>

  <!-- Dobsonian -->
  <symbol id="dobsonian" viewBox="0 0 80 80">
    <g fill="none" stroke="currentColor" stroke-width="2.5" stroke-linecap="round" stroke-linejoin="round">
      <rect x="28" y="10" width="16" height="44" rx="4"/>
      <line x1="28" y1="10" x2="44" y2="10"/>
      <line x1="28" y1="54" x2="44" y2="54"/>
      <rect x="44" y="20" width="6" height="8" rx="1.5"/>
      <path d="M26 54v18h20V54"/>
      <path d="M22 72a20 8 0 0 0 28 0"/>
      <circle cx="28" cy="46" r="3"/>
      <circle cx="44" cy="46" r="3"/>
    </g>
  </symbol>

  <!-- Tabletop Dobsonian -->
  <symbol id="tabletop-dobsonian" viewBox="0 0 80 80">
    <g fill="none" stroke="currentColor" stroke-width="2.5" stroke-linecap="round" stroke-linejoin="round">
      <rect x="30" y="14" width="22" height="30" rx="4" transform="rotate(-20 30 14)"/>
      <line x1="30" y1="14" x2="52" y2="14" transform="rotate(-20 30 14)"/>
      <line x1="30" y1="44" x2="52" y2="44" transform="rotate(-20 30 14)"/>
      <rect x="52" y="22" width="6" height="8" rx="1.5" transform="rotate(-20 52 22)"/>
      <circle cx="28" cy="36" r="3"/>
      <circle cx="48" cy="36" r="3"/>
      <path d="M26 44v10h24V44"/>
      <ellipse cx="38" cy="58" rx="18" ry="6"/>
    </g>
  </symbol>

  <!-- Refractor -->
  <symbol id="refractor" viewBox="0 0 80 80">
    <g fill="none" stroke="currentColor" stroke-width="2.5" stroke-linecap="round" stroke-linejoin="round">
      <path d="M40 50l-14 24M40 50l14 24M28 56l-8 18M52 56l8 18"/>
      <ellipse cx="40" cy="50" rx="14" ry="5"/>
      <path d="M36 34l8 6v10h-8z"/>
      <rect x="10" y="18" width="44" height="10" rx="3" transform="rotate(15 10 18)"/>
      <ellipse cx="52" cy="26" rx="6" ry="5" transform="rotate(15 52 26)"/>
      <rect x="8" y="20" width="6" height="6" rx="1" transform="rotate(15 8 20)"/>
      <rect x="44" y="20" width="8" height="3" rx="1.5" transform="rotate(15 44 20)"/>
    </g>
  </symbol>

  <!-- Reflector -->
  <symbol id="reflector" viewBox="0 0 48 48">
    <g fill="none" stroke="currentColor" stroke-width="2" stroke-linecap="round" stroke-linejoin="round">
      <path d="M10 19 l20 -7 l3 7 l-20 7 z"/>
      <path d="M24 18 l3 3"/>
      <path d="M20 30 l6 -6 l4 2"/>
      <path d="M20 30 l-6 10 M26 24 l2 14 M30 28 l8 10"/>
    </g>
  </symbol>

  <!-- Newtonian Reflector -->
  <symbol id="newtonian-reflector" viewBox="0 0 48 48">
    <g fill="none" stroke="currentColor" stroke-width="2" stroke-linecap="round" stroke-linejoin="round">
      <path d="M10 19 l20 -7 l3 7 l-20 7 z"/>
      <path d="M24 18 l3 3"/>
      <path d="M20 30 l6 -6 l4 2"/>
      <path d="M20 30 l-6 10 M26 24 l2 14 M30 28 l8 10"/>
    </g>
  </symbol>

  <!-- Bird-Jones Reflector -->
  <symbol id="bird-jones-reflector" viewBox="0 0 48 48">
    <g fill="none" stroke="currentColor" stroke-width="2" stroke-linecap="round" stroke-linejoin="round">
      <path d="M10 19 l20 -7 l3 7 l-20 7 z"/>
      <path d="M24 18 l3 3"/>
      <path d="M20 30 l6 -6 l4 2"/>
      <path d="M20 30 l-6 10 M26 24 l2 14 M30 28 l8 10"/>
    </g>
  </symbol>

  <!-- Astrograph -->
  <symbol id="astrograph" viewBox="0 0 80 64">
    <g fill="none" stroke="currentColor" stroke-width="2" stroke-linecap="round" stroke-linejoin="round">
      <rect x="5" y="22" width="8" height="20" rx="2"/>
      <rect x="13" y="18" width="46" height="28" rx="3"/>
      <rect x="32" y="17" width="6" height="30" rx="2"/>
      <path d="M35 17v30M32 20h6M32 24h6M32 28h6M32 32h6M32 36h6M32 40h6"/>
      <rect x="59" y="20" width="14" height="24" rx="3"/>
      <path d="M24 18v-2a3 3 0 0 1 3-3h4"/>
      <path d="M24 46v2a3 3 0 0 0 3 3h4"/>
      <rect x="22" y="18" width="8" height="28" rx="2"/>
      <path d="M24 46h10v6H24z"/>
      <rect x="14" y="52" width="50" height="6" rx="2"/>
      <path d="M20 55h8M32 55h8M44 55h8"/>
    </g>
  </symbol>

  <!-- Maksutov-Cassegrain -->
  <symbol id="maksutov-cassegrain" viewBox="0 0 80 80">
    <g fill="none" stroke="currentColor" stroke-width="2.5" stroke-linecap="round" stroke-linejoin="round">
      <path d="M40 54l-14 20M40 54l14 20M28 58l-8 16M52 58l8 16" />
      <ellipse cx="40" cy="54" rx="16" ry="6"/>
      <path d="M46 28v18h-12V28" />
      <rect x="20" y="18" width="28" height="16" rx="3" transform="rotate(20 20 18)"/>
      <ellipse cx="46" cy="26" rx="6" ry="5" transform="rotate(20 46 26)"/>
      <rect x="48" y="20" width="6" height="3" rx="1.5" transform="rotate(20 48 20)"/>
    </g>
  </symbol>

  <!-- Schmidt-Cassegrain -->
  <symbol id="schmidt-cassegrain" viewBox="0 0 48 48">
    <g fill="none" stroke="currentColor" stroke-width="2" stroke-linecap="round" stroke-linejoin="round">
      <ellipse cx="24" cy="30" rx="4" ry="2"/>
      <path d="M24 30 v14 M24 44 L14 46 M24 44 L34 46"/>
      <rect x="26" y="20" width="4" height="10" rx="2"/>
      <circle cx="28" cy="20" r="3"/>
      <g transform="rotate(-15 28 18)">
        <rect x="18" y="14" width="16" height="6" rx="2"/>
        <circle cx="18" cy="17" r="3"/>
      </g>
    </g>
  </symbol>

  <!-- Smart Telescope -->
  <symbol id="smart-telescope" viewBox="0 0 48 48">
    <g fill="none" stroke="currentColor" stroke-width="2" stroke-linecap="round" stroke-linejoin="round">
      <rect x="16" y="10" width="16" height="20" rx="4"/>
      <circle cx="24" cy="18" r="2.5"/>
      <path d="M28 30 v4 h-8 v-4"/>
      <rect x="14" y="34" width="20" height="4" rx="2"/>
    </g>
  </symbol>

  <!-- Other -->
  <symbol id="other" viewBox="0 0 48 48">
    <g fill="none" stroke="currentColor" stroke-width="2" stroke-linecap="round" stroke-linejoin="round">
      <path d="M24 8 v8 M24 32 v8 M8 24 h8 M32 24 h8"/>
      <circle cx="24" cy="24" r="6"/>
    </g>
  </symbol>

</svg>