<?xml version="1.0" encoding="UTF-8" standalone="no"?>
<svg xmlns="http://www.w3.org/2000/svg" width="1500" height="1488" viewBox="0 0 1500 1488" version="1.1">
  <defs>
    <linearGradient id="g1" x1="0%" y1="0%" x2="100%" y2="100%">
      <stop offset="0%" stop-color="#D8D8D8"/>
      <stop offset="100%" stop-color="#7E7E7E"/>
    </linearGradient>
  </defs>
  <g fill="url(#g1)" stroke="none">
    <path d="M 761 39 L 760 62 L 912 216 L 1003 329 L 1071 463 L 1112 603 L 1132 608 L 1149 582 L 1165 516 L 1163 403 L 1145 330 L 1088 216 L 1017 132 L 918 62 L 821 34 Z"/>
    <path d="M 1429 756 L 1409 755 L 1383 772 L 1233 919 L 1123 1002 L 1003 1064 L 862 1111 L 852 1131 L 925 1156 L 1044 1155 L 1142 1131 L 1246 1080 L 1313 1029 L 1395 932 L 1432 834 Z"/>
    <path d="M 219 262 L 223 282 L 251 290 L 481 262 L 625 265 L 737 289 L 852 332 L 878 326 L 869 291 L 841 255 L 757 187 L 658 144 L 550 125 L 440 130 L 361 154 L 254 218 Z"/>
    <path d="M 1283 295 L 1246 293 L 1230 312 L 1226 499 L 1208 632 L 1174 743 L 1091 894 L 1087 930 L 1148 912 L 1237 836 L 1292 760 L 1335 660 L 1355 554 L 1351 440 L 1329 358 L 1311 322 Z"/>
    <path d="M 518 1092 L 526 1128 L 551 1167 L 633 1247 L 724 1300 L 821 1333 L 906 1345 L 1023 1337 L 1100 1306 L 1152 1259 L 1147 1240 L 1118 1230 L 913 1217 L 782 1194 L 655 1151 L 545 1092 Z"/>
    <path d="M 534 340 L 477 325 L 368 337 L 284 370 L 191 433 L 123 504 L 73 591 L 51 667 L 57 762 L 76 764 L 115 731 L 221 592 L 305 504 L 416 422 L 537 354 Z"/>
    <path d="M 279 649 L 220 704 L 178 781 L 149 884 L 144 1001 L 158 1085 L 189 1158 L 246 1235 L 304 1279 L 317 1269 L 319 1234 L 271 953 L 272 823 L 297 675 L 294 651 Z"/>
    <path d="M 340 984 L 329 1040 L 349 1141 L 392 1232 L 447 1305 L 519 1372 L 613 1424 L 715 1441 L 759 1431 L 757 1407 L 727 1375 L 578 1256 L 502 1183 L 441 1111 L 362 993 Z"/>
  </g>
</svg>
